<?xml version="1.0" standalone="no"?><!DOCTYPE svg PUBLIC "-//W3C//DTD SVG 1.1//EN" "http://www.w3.org/Graphics/SVG/1.1/DTD/svg11.dtd"><svg class="icon" width="200px" height="199.61px" viewBox="0 0 1026 1024" version="1.1" xmlns="http://www.w3.org/2000/svg"><path d="M59.546301 711.87438l72.054732-72.054732a77.323022 77.323022 0 0 1 54.652744-22.644227h139.875194l-90.62901 143.005307-18.333808 11.45838-91.991672-16.696611z m0 0" fill="#F9CF99" /><path d="M217.166153 771.639108l-81.619413 28.728109H20.532102c-18.255656 0-27.397511-22.083131-14.488298-34.988336l53.502497-53.504501z m0 0" fill="#F77F82" /><path d="M283.804305 936.132384l72.054732-72.054732a77.284947 77.284947 0 0 0 22.654247-54.652744v-139.87319l-143.013323 90.62901-11.462388 18.331804 16.698615 91.991672z m0 0" fill="#F9CF99" /><path d="M224.037573 778.512532l-28.726105 81.619413v115.014638c0 18.255656 22.083131 27.397511 34.988336 14.488298l53.504501-53.502497z m0 0" fill="#F77F82" /><path d="M966.457613 711.87438l-72.054732-72.054732a77.323022 77.323022 0 0 0-54.652744-22.644227h-139.875194l90.62901 143.005307 18.333808 11.45838 91.991671-16.696611z m0 0" fill="#F9CF99" /><path d="M808.837761 771.639108l81.619413 28.728109h115.006622c18.261667 0 27.405526-22.083131 14.496314-34.988336l-53.502497-53.504501z m0 0" fill="#F77F82" /><path d="M742.199609 936.132384l-72.054732-72.054732a77.284947 77.284947 0 0 1-22.654247-54.652744v-139.87319l143.013323 90.62901 11.462388 18.331804-16.698615 91.991672z m0 0" fill="#F9CF99" /><path d="M801.966341 778.512532l28.726105 81.619413v115.014638c0 18.255656-22.083131 27.397511-34.988336 14.488298l-53.504501-53.502497z m0 0" fill="#F77F82" /><path d="M799.890286 136.031687l-664.337535 664.337534c-8.09982 8.107836-8.09982 21.251507 0 29.353331l30.403382 30.403381c8.101824 8.101824 21.253511 8.101824 29.355335 0l664.337534-664.337534z m0 0" fill="#A67052" /><path d="M409.447703 526.466254l59.085401-59.085401 59.756712 59.756713-59.083397 59.085401z m0 0" fill="#935B43" /><path d="M226.113628 136.031687l664.337534 664.337534c8.09982 8.107836 8.09982 21.251507 0 29.353331l-30.403381 30.403381c-8.101824 8.101824-21.245495 8.101824-29.355335 0L166.354912 195.788399z m0 0" fill="#C68C6A" /><path d="M799.890286 136.031687l-103.319797 103.317792 43.867679 15.891038 15.891037 43.865675 103.317793-103.317793z m0 0" fill="#935B43" /><path d="M788.790607 206.888078l-111.624016-40.438982c-21.283569-9.306176-18.848814-40.248611 3.623076-46.120078L940.681268 33.651726c12.939272-3.382607 24.728297 8.406419 21.353707 21.345691L875.349667 314.889018c-5.871468 22.479906-36.811898 24.90865-46.120078 3.631092z m0 0" fill="#D2D2D2" /><path d="M226.113628 136.031687l-59.756712 59.756712 103.317792 103.319797 15.891038-43.865675 43.865675-15.891038z m0 0" fill="#A67052" /><path d="M237.213307 206.888078l111.624016-40.438982c21.283569-9.306176 18.848814-40.248611-3.623076-46.120078L85.322646 33.651726c-12.939272-3.382607-24.728297 8.406419-21.353707 21.345691L150.654247 314.889018c5.871468 22.473894 36.811898 24.90865 46.120078 3.623076z m0 0" fill="#D2D2D2" /></svg>