<?xml version="1.0" standalone="no"?><!DOCTYPE svg PUBLIC "-//W3C//DTD SVG 1.1//EN" "http://www.w3.org/Graphics/SVG/1.1/DTD/svg11.dtd"><svg class="icon" width="200px" height="200.00px" viewBox="0 0 1024 1024" version="1.1" xmlns="http://www.w3.org/2000/svg"><path d="M404.618 326.016l143.476-243.93A154.346 154.346 0 0 1 681.134 6a154.366 154.366 0 0 1 133.038 76.086l143.484 243.93-26.374 95.852H442.976z m0 0" fill="#EDEBEC" /><path d="M559.172 250.11a15.452 15.452 0 0 1-15.454-15.454V212.58a15.452 15.452 0 1 1 30.908 0v22.08a15.458 15.458 0 0 1-15.454 15.452z m0 0M803.1 250.11a15.452 15.452 0 0 1-15.452-15.454V212.58a15.452 15.452 0 1 1 30.906 0v22.08a15.458 15.458 0 0 1-15.452 15.452z m0 0M681.132 261.89c-16.186 0-31.398-6.78-41.734-18.6a15.45 15.45 0 0 1 1.47-21.806 15.456 15.456 0 0 1 21.804 1.46c4.46 5.11 11.196 8.04 18.46 8.04 7.274 0 14.008-2.93 18.47-8.04a15.456 15.456 0 0 1 21.804-1.46 15.45 15.45 0 0 1 1.468 21.806c-10.334 11.82-25.546 18.6-41.74 18.6z m0 0" fill="#57565C" /><path d="M900.438 1019.04H1024V438.82l-66.344-112.804-27.156 12.36a120.38 120.38 0 0 1-49.882 10.82c-17.016 0-34.016-3.61-49.86-10.82s-32.86-10.814-49.884-10.814c-17.014 0-34.03 3.602-49.88 10.812a120.272 120.272 0 0 1-49.86 10.82 120.432 120.432 0 0 1-49.884-10.82 120.422 120.422 0 0 0-99.742 0 120.38 120.38 0 0 1-99.742 0l-27.148-12.36-78.26 133.018v387.264z m0 0" fill="#A67052" /><path d="M635.524 487.804c-26.586-44.35-75.07-71.85-126.844-71.85-41.312 0-80.532 17.506-108.22 47.14l-38.24-65.008-35.86 60.946v387.264l574.078 172.744h73.272z m0 0" fill="#935B43" /><path d="M0 712.704v-104.134l132.954-226.016a86.084 86.084 0 0 1 148.406 0l45 76.478 72.054 122.492 36.054-61.32a86.13 86.13 0 0 1 74.212-42.446 86.084 86.084 0 0 1 74.194 42.446l125.086 196.5-381.6 129.592z m0 0" fill="#EDEBEC" /><path d="M900.438 1019.04H0V712.704a120.316 120.316 0 0 1 49.78-10.774 120.36 120.36 0 0 1 49.876 10.812 120.404 120.404 0 0 0 49.884 10.82c17.022 0 34.04-3.608 49.86-10.82a120.396 120.396 0 0 1 49.88-10.812c17.024 0 34.04 3.6 49.884 10.812a120.22 120.22 0 0 0 49.86 10.82 120.38 120.38 0 0 0 49.882-10.82 120.37 120.37 0 0 1 49.884-10.812c17 0 34.014 3.6 49.86 10.812a120.352 120.352 0 0 0 99.74 0 120.37 120.37 0 0 1 49.884-10.812c17 0 34.016 3.6 49.86 10.812a124.716 124.716 0 0 0 9.826 3.96z m0 0" fill="#C68C6A" /></svg>