<?xml version="1.0" standalone="no"?><!DOCTYPE svg PUBLIC "-//W3C//DTD SVG 1.1//EN" "http://www.w3.org/Graphics/SVG/1.1/DTD/svg11.dtd"><svg class="icon" width="200px" height="200.00px" viewBox="0 0 1024 1024" version="1.1" xmlns="http://www.w3.org/2000/svg"><path d="M651.58814 744.39H372.41614s-96.946 84.672-96.946 243.742h473.064c0-159.04-96.914-243.718-96.946-243.74z m0 0" fill="#FFE1D7" /><path d="M512.97014 898.726c79.9 0 147.79-26.866 202.68-62.46-28.108-60.46-64.04-91.86-64.062-91.876H372.41614s-35.554 31.07-63.6 90.9c55.146 36.078 123.53 63.436 204.154 63.436z m0 0" fill="#FFCEC0" /><path d="M512.00214 793.632c-29.04 12.118-49.446 40.766-49.446 74.188 0 33.422 20.406 62.08 49.446 74.188 29.04-12.11 49.446-40.766 49.446-74.188 0-33.42-20.406-62.07-49.446-74.188z m0 0" fill="#AEAEB2" /><path d="M636.13414 988.132v-92.836c0-8.54 6.914-15.452 15.454-15.452s15.454 6.914 15.454 15.452v92.836z m0 0M356.96214 988.132v-92.836c0-8.54 6.922-15.452 15.454-15.452a15.448 15.448 0 0 1 15.454 15.452v92.836z m0 0" fill="#FFCEC0" /><path d="M874.06414 419.882c-2.546 96.11-42.546 182.922-105.952 246.29-65.524 65.562-156.086 106.094-256.11 106.094-200.04 0-362.21-162.164-362.21-362.212l140.804-140.796h447.71z m0 0" fill="#FFE1D7" /><path d="M211.83814 207.28a363.364 363.364 0 0 1 44.054-53.334C321.41614 88.38 411.97814 47.852 512.00214 47.852c124.914 0 235.046 63.226 300.172 159.43l-299.204 61.984z m0 0" fill="#FFB85C" /><path d="M273.65014 207.28a363.364 363.364 0 0 1 44.056-53.334c58.686-58.72 137.46-97.336 225.116-104.76A365.46 365.46 0 0 0 512.00214 47.854c-100.024 0-190.58 40.53-256.11 106.1a363.88 363.88 0 0 0-44.054 53.33l301.14 61.984 30.806-6.384z m0 0" fill="#E7A249" /><path d="M907.01014 450.914l71.352-32.72a201.634 201.634 0 0 1-72 180.736l-41.376 34.024-43.094-80.102z m0 0M116.99414 450.914l-71.352-32.72a201.634 201.634 0 0 0 72 180.736l41.376 34.024 43.094-80.102z m0 0" fill="#D2D2D2" /><path d="M986.31414 289.148c22.844 51.102 12.93 110.914-25.194 151.906l-81.228 87.336-45.766-40.772 12.236-78.844z m0 0" fill="#EDEBEC" /><path d="M267.29814 317.696v90.046c0 41.118 33.33 74.446 74.446 74.446s74.454-33.328 74.454-74.446v-90.046z m0 0" fill="#48484D" /><path d="M556.33814 896.04a80.12 80.12 0 0 0 5.11-28.22c0-33.42-20.406-62.07-49.446-74.18-29.04 12.11-49.446 40.76-49.446 74.18 0 9.828 1.774 19.234 5 27.938 14.68 1.914 29.814 2.968 45.414 2.968 14.876 0 29.336-0.944 43.368-2.686z m0 0" fill="#A1A1A5" /><path d="M512.97014 847.22c204.384 0 323.094-209.47 323.094-209.47l-40.132-98.016s-50.79 58.76-129.648 71.516l-153.314-46.296-153.312 46.296c-78.86-12.758-129.648-71.516-129.648-71.516l-40.134 98.016s118.712 209.468 323.094 209.468z m0 0" fill="#D2D2D2" /><path d="M562.83014 514.96h-101.796s-103.556 28.72-103.556 117.994v50.124h1.86c38.094 0 72.828-20.25 93.188-52.438 10.772-17.03 28.898-31.616 59.406-31.616s48.632 14.586 59.4 31.616c20.366 32.188 55.1 52.44 93.186 52.44h1.866v-50.126c0-89.274-103.554-117.994-103.554-117.994z m0 0" fill="#AEAEB2" /><path d="M874.21214 410.062c0 3.28-0.046 6.562-0.148 9.82l-72.516 38.086c0-32.944-13.35-62.772-34.944-84.36-21.688-21.68-51.704-35.046-84.828-34.928-65.978 0.266-118.806 55.094-118.806 121.062v55.22c0 10.5-8.5 19-19 19H480.04214c-10.5 0-19-8.5-19-19v-56.994c0-32.944-13.36-62.772-34.946-84.36-21.594-21.568-51.422-34.928-84.344-34.928-65.876 0-119.29 53.4-119.29 119.288l-70.726-85.484c6.26-60.774 27.548-117.1 60.102-165.202h600.336c39.156 57.86 62.04 127.648 62.04 202.78z m0 0" fill="#FFC471" /><path d="M213.54214 372.484c6.264-60.774 27.546-117.108 60.108-165.202h-61.812c-32.562 48.1-53.844 104.428-60.1 165.202l70.718 85.484a118.756 118.756 0 0 1 14.554-57.124z m0 0" fill="#FFB85C" /><path d="M980.91614 150.25h-45.664l-113.36 203.828v96.836l48.892-6.11c35-38.514 68.194-81.546 94.68-118.116 37.132-51.266 44.64-118.242 19.734-176.438M43.08814 150.25h45.664l113.36 203.828v96.836l-48.892-6.11c-35-38.514-68.194-81.546-94.68-118.116-37.132-51.266-44.64-118.242-19.734-176.438" fill="#D2D2D2" /><path d="M37.69014 289.148c-22.852 51.102-12.93 110.914 25.194 151.906l81.228 87.336 45.764-40.772-12.234-78.844z m0 0" fill="#EDEBEC" /><path d="M202.11214 568.312a15.468 15.468 0 0 1-14.656-10.546 15.464 15.464 0 0 1 9.71-19.556c0.976-0.328 98.266-34.592 129.742-142.592a15.45 15.45 0 0 1 19.164-10.516 15.452 15.452 0 0 1 10.508 19.164c-36.118 123.938-144.946 161.694-149.562 163.24a15.366 15.366 0 0 1-4.906 0.806z m0 0" fill="#48484D" /><path d="M347.73614 272.04c0 14.718-11.93 26.648-26.648 26.648-14.712 0-26.648-11.93-26.648-26.648s11.938-26.65 26.648-26.65c14.72 0 26.648 11.93 26.648 26.65z m0 0M729.56414 272.04c0 14.718-11.93 26.648-26.648 26.648s-26.648-11.93-26.648-26.648 11.93-26.65 26.648-26.65 26.648 11.93 26.648 26.65z m0 0M538.65014 272.04c0 14.718-11.93 26.648-26.648 26.648s-26.648-11.93-26.648-26.648 11.93-26.65 26.648-26.65 26.648 11.93 26.648 26.65z m0 0" fill="#E7A249" /><path d="M676.22814 472.61a15.452 15.452 0 0 1-15.452-15.454v-31.094a15.452 15.452 0 1 1 30.906 0v31.094a15.448 15.448 0 0 1-15.454 15.454z m0 0" fill="#57565C" /><path d="M704.97814 540.234h-45.132c-8.532 0-15.454-6.92-15.454-15.452s6.922-15.454 15.454-15.454h45.132c8.532 0 15.454 6.922 15.454 15.454s-6.922 15.452-15.454 15.452z m0 0M364.15814 540.234h-45.132c-8.532 0-15.446-6.92-15.446-15.452s6.914-15.454 15.446-15.454h45.132c8.532 0 15.454 6.922 15.454 15.454s-6.922 15.452-15.454 15.452z m0 0" fill="#F77F82" /><path d="M843.79814 197.032c31.494-47.602 64.18-94.392 96.688-141.306 15.96-23.03 48.672-26.476 69.086-7.266 17.016 16.016 19.28 42.266 5.22 60.93-39.086 51.86-112.884 158.008-143.22 256.94-19.094 51.264 23.04 130.796 2.634 220.506-12.946 56.9-19.306 112.844-22.228 146.156-1.086 12.468-16.43 17.618-24.944 8.438-35.954-38.766-33-64.852-33-242.946 0-40.578-15.228-77.312-18.844-117.116-6.204-68.486 32.444-129.672 68.608-184.336z m0 0M180.20614 197.032C148.71214 149.43 116.02614 102.64 83.51814 55.726 67.55814 32.696 34.84614 29.25 14.43214 48.46c-17.016 16.016-19.28 42.266-5.22 60.93 39.086 51.86 112.884 158.008 143.22 256.94 19.094 51.264-23.04 130.796-2.634 220.506 12.946 56.9 19.306 112.844 22.228 146.156 1.094 12.468 16.436 17.618 24.944 8.438 35.954-38.766 33-64.852 33-242.946 0-40.578 15.236-77.312 18.844-117.116 6.212-68.486-32.444-129.672-68.608-184.336z m0 0" fill="#EDEBEC" /></svg>